<svg width="32" height="32" viewBox="0 0 32 32" fill="none" xmlns="http://www.w3.org/2000/svg">
<g clip-path="url(#clip0_7263_8492)">
<path d="M11.4931 18.4952C8.0703 15.0724 8.0703 9.52285 11.4931 6.10001C14.916 2.67717 20.4655 2.67717 23.8883 6.10001C27.3112 9.52285 27.3112 15.0724 23.8883 18.4952C20.4655 21.918 14.916 21.918 11.4931 18.4952Z" fill="#B6DFF9"/>
<path d="M13.3003 11.0424H16.438V7.90454H18.9482V11.0424H22.0859V13.5525H18.9482V16.6903H16.438V13.5525H13.3003V11.0424Z" stroke="#161A1E" stroke-width="1.5" stroke-miterlimit="10" stroke-linecap="round" stroke-linejoin="round"/>
<path d="M25.6227 31.375V27.4272C25.6227 23.9775 26.451 20.5803 28.0302 17.505C28.8208 15.9571 29.2741 14.2052 29.2963 12.3509C29.3618 5.91425 24.2215 0.676624 17.7851 0.625374C11.3286 0.574186 6.07831 5.78956 6.07831 12.2309C6.07831 13.2517 5.83069 14.2576 5.35 15.1613L2.81982 19.2126C2.45157 19.9001 2.94482 20.7344 3.72582 20.7479L6.07575 20.7854V23.9121C6.07575 25.2561 7.1745 26.3546 8.51813 26.3546H11.8789V31.375H25.6227Z" stroke="#161A1E" stroke-width="1.5" stroke-miterlimit="10" stroke-linecap="round" stroke-linejoin="round"/>
</g>
<defs>
<clipPath id="clip0_7263_8492">
<rect width="32" height="32" fill="white" transform="matrix(-1 0 0 1 32 0)"/>
</clipPath>
</defs>
</svg>
