<svg width="40" height="40" viewBox="0 0 40 40" fill="none" xmlns="http://www.w3.org/2000/svg">
<g clip-path="url(#clip0_7263_7897)">
<path d="M27.3245 7.83887C24.7191 7.83887 23.7225 9.48043 23.4223 10.1664C23.1223 9.48043 22.133 7.83887 19.5276 7.83887C16.8778 7.83887 14.5469 9.65434 14.5469 12.9696C14.5469 14.3111 14.8193 15.4604 15.5752 16.7429C17.1159 19.3567 23.4219 22.7846 23.4219 22.7846C23.4219 22.7846 29.7298 19.3771 31.2826 16.7429C32.0386 15.4604 32.3091 14.3111 32.3091 12.9696C32.3091 9.65441 29.9743 7.83887 27.3245 7.83887Z" fill="#161A1E"/>
<path d="M33.1086 4.71498C30.0824 1.67273 26.0456 0 21.7335 0C21.7105 0 21.6869 7.81247e-05 21.6639 0.000156249C17.617 0.0170312 14.0174 1.05695 11.2542 3.00741C8.28508 5.10326 6.42774 8.16911 5.88313 11.8735C5.88181 11.8826 5.88063 11.8917 5.87962 11.9008L5.75915 12.9841C5.75806 12.9935 5.7572 13.0028 5.75649 13.0123C5.72798 13.3942 5.71415 15.2567 5.71165 15.857L2.50424 22.0337C2.22971 22.5386 2.21705 23.1466 2.47096 23.6627C2.72213 24.1731 3.20361 24.5319 3.76322 24.6273L5.53767 25.0243V29.1248C5.53767 30.4529 6.1268 31.6974 7.15407 32.5392C8.18125 33.381 9.51734 33.7141 10.8194 33.4532L14.3288 32.7499V39.2188C14.3288 39.6503 14.6786 40.0001 15.1101 40.0001H26.0899C26.5213 40.0001 26.8712 39.6503 26.8712 39.2188V31.7421C33.4043 30.0503 37.6365 23.9554 37.7118 16.0256C37.7524 11.7569 36.1176 7.74005 33.1086 4.71498ZM36.1494 16.0107C36.0791 23.4269 32.0669 29.0589 25.9281 30.3591C25.5671 30.4356 25.3088 30.7543 25.3088 31.1234V38.4375H15.8914V32.4365L20.5214 31.5075C20.9443 31.4225 21.2185 31.0108 21.1336 30.5878C21.0488 30.1647 20.6369 29.8907 20.2139 29.9755L14.9565 31.0305L10.5126 31.921C9.6714 32.0896 8.80828 31.8745 8.14461 31.3306C7.48094 30.7868 7.10032 29.9828 7.10032 29.1247V24.3983C7.10032 24.0326 6.84657 23.7158 6.48962 23.6359L4.0822 23.0973C4.06478 23.0934 4.04728 23.0901 4.02963 23.0875C3.94025 23.0738 3.89517 23.0176 3.87322 22.9728C3.85119 22.928 3.83408 22.858 3.87783 22.7788C3.88103 22.773 3.88424 22.767 3.88736 22.7611L7.18664 16.4072C7.24469 16.2953 7.27485 16.1712 7.27453 16.0451L7.27399 16.0037C7.27399 15.5433 7.28946 13.5126 7.31399 13.1411L7.43117 12.0871C8.38742 5.6274 13.8422 1.59531 21.6705 1.56265C21.6915 1.56257 21.7124 1.56249 21.7334 1.56249C25.6262 1.56249 29.2705 3.07194 32.0008 5.81693C34.7126 8.54325 36.186 12.1635 36.1494 16.0107Z" fill="#161A1E"/>
<path d="M11.3903 14.7891H10.0938C9.66227 14.7891 9.3125 15.1388 9.3125 15.5703C9.3125 16.0018 9.66227 16.3516 10.0938 16.3516H11.3903C11.8218 16.3516 12.1716 16.0018 12.1716 15.5703C12.1716 15.1388 11.8218 14.7891 11.3903 14.7891Z" fill="#161A1E"/>
</g>
<defs>
<clipPath id="clip0_7263_7897">
<rect width="40" height="40" fill="white"/>
</clipPath>
</defs>
</svg>
