<svg width="19" height="19" viewBox="0 0 19 19" fill="none" xmlns="http://www.w3.org/2000/svg">
<mask id="mask0_7263_8470" style="mask-type:luminance" maskUnits="userSpaceOnUse" x="0" y="0" width="19" height="19">
<path d="M0 1.90735e-06H19V19H0V1.90735e-06Z" fill="white"/>
</mask>
<g mask="url(#mask0_7263_8470)">
<path d="M15.7906 6.65559H12.2194V3.08447C12.2194 2.48556 11.7339 2 11.135 2H7.24003C6.64112 2 6.15559 2.48556 6.15559 3.08447V6.65559H2.58444C1.98553 6.65559 1.5 7.14112 1.5 7.74003V11.635C1.5 12.2339 1.98553 12.7194 2.58444 12.7194H6.15559V16.2906C6.15559 16.8895 6.64112 17.375 7.24003 17.375H11.135C11.7339 17.375 12.2194 16.8895 12.2194 16.2906V12.7194H15.7906C16.3895 12.7194 16.875 12.2339 16.875 11.635V7.74003C16.875 7.14112 16.3895 6.65559 15.7906 6.65559Z" stroke="#161A1E" stroke-width="1.5" stroke-miterlimit="10" stroke-linecap="round" stroke-linejoin="round"/>
<path d="M7.59309 15.9375V11.2819H2.9375V8.09309H7.59309V3.4375H10.7819V8.09309H15.4375V11.2819H10.7819V15.9375H7.59309Z" fill="#B6DFF9"/>
</g>
</svg>
